<?xml version="1.0" encoding="UTF-8" standalone="no"?>
<svg
   width="24"
   height="24"
   viewBox="0 0 24 24"
   fill="none"
   version="1.1"
   id="svg7"
   sodipodi:docname="upload.svg"
   inkscape:version="1.4 (1:1.4+202410161351+e7c3feb100)"
   xmlns:inkscape="http://www.inkscape.org/namespaces/inkscape"
   xmlns:sodipodi="http://sodipodi.sourceforge.net/DTD/sodipodi-0.dtd"
   xmlns="http://www.w3.org/2000/svg"
   xmlns:svg="http://www.w3.org/2000/svg">
  <defs
     id="defs7" />
  <sodipodi:namedview
     id="namedview7"
     pagecolor="#ffffff"
     bordercolor="#000000"
     borderopacity="0.25"
     inkscape:showpageshadow="2"
     inkscape:pageopacity="0.0"
     inkscape:pagecheckerboard="0"
     inkscape:deskcolor="#d1d1d1"
     inkscape:zoom="34.041667"
     inkscape:cx="12"
     inkscape:cy="12"
     inkscape:window-width="1920"
     inkscape:window-height="1019"
     inkscape:window-x="0"
     inkscape:window-y="0"
     inkscape:window-maximized="1"
     inkscape:current-layer="g7" />
  <mask
     id="mask0_100_696"
     style="mask-type:luminance"
     maskUnits="userSpaceOnUse"
     x="1"
     y="4"
     width="22"
     height="16">
    <path
       d="M12 16C15.3137 16 18 13.3137 18 10C18 6.68629 15.3137 4 12 4C8.68629 4 6 6.68629 6 10C6 13.3137 8.68629 16 12 16Z"
       fill="white"
       id="path1" />
    <path
       d="M17 12H8V20H17V12Z"
       fill="white"
       id="path2" />
    <path
       d="M10 8H7C3.68629 8 1 10.6863 1 14C1 17.3137 3.68629 20 7 20H10C13.3137 20 16 17.3137 16 14C16 10.6863 13.3137 8 10 8Z"
       fill="white"
       id="path3" />
    <path
       d="M18 10H15C12.2386 10 10 12.2386 10 15C10 17.7614 12.2386 20 15 20H18C20.7614 20 23 17.7614 23 15C23 12.2386 20.7614 10 18 10Z"
       fill="white"
       id="path4" />
    <path
       d="M10 17H14V12H10V17Z"
       fill="black"
       id="path5" />
    <path
       d="M7 13H17L12 8L7 13Z"
       fill="black"
       id="path6" />
  </mask>
  <g
     mask="url(#mask0_100_696)"
     id="g7">
    <path
       d="M24 0H0V24H24V0Z"
       fill="black"
       id="path7"
       style="fill:#b0aeae;fill-opacity:1" />
  </g>
</svg>
